<svg xmlns="http://www.w3.org/2000/svg" viewBox="0 0 24 24" id="reebok"><path d="M23.978 7.001c-6.031.538-9.722 1.019-12.337 1.608a.25.25 0 0 0-.081.454l2.644 1.71a.254.254 0 0 0 .228.023l4.208-1.652c1.368-.462 3.143-.982 5.196-1.585l.234-.069a.251.251 0 0 0 .176-.286c-.024-.126-.119-.206-.268-.203zM9.258 12.15a.25.25 0 0 0-.031-.472l-2.339-.641a.258.258 0 0 0-.135 0 14.395 14.395 0 0 0-3.83 1.74c-1.2.767-2.131 1.636-2.767 2.582a.25.25 0 0 0 .207.389H4.33a.25.25 0 0 0 .211-.116c.289-.457.78-.972 1.429-1.496.881-.776 1.956-1.426 3.288-1.986zm3.033 1.049-1.983-.695a.255.255 0 0 0-.188.009 9.735 9.735 0 0 0-1.716.983c-.855.599-1.692 1.387-2.489 2.343a.25.25 0 0 0 .193.41H9.82c.088 0 .17-.046.215-.123.475-.799 1.259-1.639 2.331-2.497a.25.25 0 0 0 .09-.237.256.256 0 0 0-.165-.193zM8.312 7.787a.248.248 0 0 0-.13-.037H.25a.25.25 0 0 0-.068.491l7.924 2.242a94.642 94.642 0 0 1 9.738 3.73.251.251 0 0 0 .324-.113.251.251 0 0 0-.091-.33L8.312 7.787z"></path></svg>